<svg xmlns="http://www.w3.org/2000/svg" width="24" height="24" viewBox="0 0 24 24" fill="none">
  <path d="M16.7885 9.16346C16.9286 9.31145 17.0042 9.50898 16.9988 9.7127C16.9934 9.91641 16.9074 10.1096 16.7596 10.25L11.125 15.6346C10.9793 15.7716 10.7865 15.8474 10.5865 15.8462C10.3895 15.8469 10.1999 15.771 10.0577 15.6346L7.24039 12.9423C7.16225 12.8741 7.0987 12.7909 7.05356 12.6975C7.00842 12.6041 6.98262 12.5026 6.97772 12.399C6.97282 12.2954 6.98892 12.1919 7.02504 12.0947C7.06116 11.9975 7.11656 11.9086 7.18792 11.8334C7.25928 11.7581 7.34511 11.6981 7.44027 11.6568C7.53542 11.6156 7.63793 11.5941 7.74163 11.5935C7.84533 11.5928 7.94808 11.6132 8.0437 11.6533C8.13933 11.6935 8.22585 11.7525 8.29808 11.8269L10.5865 14.0096L15.7019 9.13461C15.8499 8.99452 16.0474 8.91887 16.2512 8.92428C16.4549 8.92969 16.6481 9.01571 16.7885 9.16346ZM22 12C22 13.9778 21.4135 15.9112 20.3147 17.5557C19.2159 19.2002 17.6541 20.4819 15.8268 21.2388C13.9996 21.9957 11.9889 22.1937 10.0491 21.8078C8.10929 21.422 6.32746 20.4696 4.92894 19.0711C3.53041 17.6725 2.578 15.8907 2.19215 13.9509C1.8063 12.0111 2.00433 10.0004 2.76121 8.17316C3.51809 6.3459 4.79981 4.78412 6.4443 3.6853C8.08879 2.58649 10.0222 2 12 2C14.6506 2.00508 17.1912 3.06028 19.0655 4.93455C20.9397 6.80881 21.9949 9.34939 22 12ZM20.4615 12C20.4615 10.3265 19.9653 8.69051 19.0355 7.29902C18.1057 5.90753 16.7842 4.82299 15.2381 4.18256C13.6919 3.54212 11.9906 3.37456 10.3492 3.70105C8.70786 4.02754 7.20016 4.83342 6.01679 6.01679C4.83343 7.20016 4.02754 8.70786 3.70105 10.3492C3.37456 11.9906 3.54213 13.6919 4.18256 15.2381C4.823 16.7842 5.90753 18.1057 7.29902 19.0355C8.69052 19.9653 10.3265 20.4615 12 20.4615C14.2434 20.459 16.3941 19.5667 17.9804 17.9804C19.5667 16.3941 20.459 14.2434 20.4615 12Z" fill="#05C98E"/>
</svg>