<svg xmlns="http://www.w3.org/2000/svg" width="24" height="24" viewBox="0 0 24 24" fill="#E41043">
  <path fill-rule="evenodd" clip-rule="evenodd" d="M2 12C2 6.47901 6.47901 2 12 2C17.521 2 22 6.47901 22 12C22 17.521 17.521 22 12 22C6.47901 22 2 17.521 2 12ZM12 3.53846C7.32868 3.53846 3.53846 7.32868 3.53846 12C3.53846 16.6713 7.32868 20.4615 12 20.4615C16.6713 20.4615 20.4615 16.6713 20.4615 12C20.4615 7.32868 16.6713 3.53846 12 3.53846Z" />
  <path fill-rule="evenodd" clip-rule="evenodd" d="M8.46967 8.46967C8.76256 8.17678 9.23744 8.17678 9.53033 8.46967L12 10.9393L14.4697 8.46967C14.7626 8.17678 15.2374 8.17678 15.5303 8.46967C15.8232 8.76256 15.8232 9.23744 15.5303 9.53033L13.0607 12L15.5303 14.4697C15.8232 14.7626 15.8232 15.2374 15.5303 15.5303C15.2374 15.8232 14.7626 15.8232 14.4697 15.5303L12 13.0607L9.53033 15.5303C9.23744 15.8232 8.76256 15.8232 8.46967 15.5303C8.17678 15.2374 8.17678 14.7626 8.46967 14.4697L10.9393 12L8.46967 9.53033C8.17678 9.23744 8.17678 8.76256 8.46967 8.46967Z" />
</svg>