<svg xmlns="http://www.w3.org/2000/svg" width="24" height="24" viewBox="0 0 24 24" fill="none">
  <path fill-rule="evenodd" clip-rule="evenodd" d="M4.93506 3.91454C5.53377 3.32897 6.34579 3 7.19249 3H16.8075C17.6542 3 18.4662 3.32897 19.0649 3.91454C19.6636 4.50012 20 5.29432 20 6.12245V17.8776C20 18.7057 19.6636 19.4999 19.0649 20.0855C18.4662 20.671 17.6542 21 16.8075 21H7.19249C6.34579 21 5.53377 20.671 4.93506 20.0855C4.33635 19.4999 4 18.7057 4 17.8776V6.12245C4 5.29432 4.33635 4.50012 4.93506 3.91454ZM7.19249 4.54286C6.76416 4.54286 6.35337 4.70928 6.05049 5.00551C5.74762 5.30174 5.57746 5.70351 5.57746 6.12245V17.8776C5.57746 18.2965 5.74762 18.6983 6.05049 18.9945C6.35337 19.2907 6.76416 19.4571 7.19249 19.4571H16.8075C17.2358 19.4571 17.6466 19.2907 17.9495 18.9945C18.2524 18.6983 18.4225 18.2965 18.4225 17.8776V6.12245C18.4225 5.70352 18.2524 5.30174 17.9495 5.00551C17.6466 4.70928 17.2358 4.54286 16.8075 4.54286H7.19249ZM6.40376 8.47347C6.40376 8.04742 6.75688 7.70204 7.19249 7.70204H8.39437C8.82997 7.70204 9.1831 8.04742 9.1831 8.47347C9.1831 8.89952 8.82997 9.2449 8.39437 9.2449H7.19249C6.75688 9.2449 6.40376 8.89952 6.40376 8.47347ZM10.0094 8.47347C10.0094 8.04742 10.3625 7.70204 10.7981 7.70204H16.8075C17.2431 7.70204 17.5962 8.04742 17.5962 8.47347C17.5962 8.89952 17.2431 9.2449 16.8075 9.2449H10.7981C10.3625 9.2449 10.0094 8.89952 10.0094 8.47347ZM6.40376 12C6.40376 11.574 6.75688 11.2286 7.19249 11.2286H8.39437C8.82997 11.2286 9.1831 11.574 9.1831 12C9.1831 12.426 8.82997 12.7714 8.39437 12.7714H7.19249C6.75688 12.7714 6.40376 12.426 6.40376 12ZM10.0094 12C10.0094 11.574 10.3625 11.2286 10.7981 11.2286H16.8075C17.2431 11.2286 17.5962 11.574 17.5962 12C17.5962 12.426 17.2431 12.7714 16.8075 12.7714H10.7981C10.3625 12.7714 10.0094 12.426 10.0094 12ZM6.40376 15.5265C6.40376 15.1005 6.75688 14.7551 7.19249 14.7551H8.39437C8.82997 14.7551 9.1831 15.1005 9.1831 15.5265C9.1831 15.9526 8.82997 16.298 8.39437 16.298H7.19249C6.75688 16.298 6.40376 15.9526 6.40376 15.5265ZM10.0094 15.5265C10.0094 15.1005 10.3625 14.7551 10.7981 14.7551H16.8075C17.2431 14.7551 17.5962 15.1005 17.5962 15.5265C17.5962 15.9526 17.2431 16.298 16.8075 16.298H10.7981C10.3625 16.298 10.0094 15.9526 10.0094 15.5265Z" fill="#037096"/>
</svg>