<svg xmlns="http://www.w3.org/2000/svg" width="20" height="20" viewBox="0 0 20 20" fill="none">
  <path d="M10.0006 9.99995C8.59958 9.99995 7.25579 9.47318 6.26507 8.53551C5.27435 7.59784 4.71777 6.32601 4.71777 4.99998C4.71777 3.67394 5.27435 2.40211 6.26507 1.46444C7.25579 0.526773 8.59958 0 10.0006 0C11.4017 0 12.7455 0.526773 13.7362 1.46444C14.7269 2.40211 15.2835 3.67394 15.2835 4.99998C15.2835 6.32601 14.7269 7.59784 13.7362 8.53551C12.7455 9.47318 11.4017 9.99995 10.0006 9.99995ZM10.0006 1.42856C8.99983 1.42856 8.04011 1.80484 7.33243 2.47464C6.62474 3.14444 6.22716 4.05276 6.22716 4.99998C6.22716 5.9472 6.62473 6.85552 7.33243 7.52531C8.04012 8.1951 8.99983 8.57139 10.0006 8.57139C11.0015 8.57139 11.9612 8.19511 12.6689 7.52531C13.3765 6.85551 13.7741 5.9472 13.7741 4.99998C13.7741 4.05276 13.3766 3.14443 12.6689 2.47464C11.9612 1.80485 11.0015 1.42856 10.0006 1.42856Z" fill="#037096"/>
  <path d="M17.7204 19.9999H2.27937C1.52351 20.0034 0.81578 19.6496 0.392633 19.057C-0.0209313 18.4977 -0.114263 17.7804 0.143485 17.1428C0.91198 15.2593 2.26487 13.6403 4.02408 12.4983C5.7833 11.3564 7.86665 10.7453 9.99998 10.7453C12.1333 10.7453 14.2165 11.3564 15.9759 12.4983C17.7351 13.6402 19.088 15.2593 19.8565 17.1428C20.1142 17.7851 20.0211 18.5066 19.6073 19.0713C19.1808 19.6586 18.4736 20.0066 17.7206 19.9999H17.7204ZM10.0001 12.1428C8.17169 12.1506 6.38802 12.6795 4.88156 13.6605C3.3751 14.6416 2.21602 16.0293 1.55499 17.6428C1.47245 17.8454 1.50378 18.0738 1.63804 18.2499C1.77972 18.4537 2.02162 18.575 2.27954 18.5713H17.7206C17.9785 18.575 18.2204 18.4537 18.3621 18.2499C18.4964 18.0737 18.5277 17.8454 18.4451 17.6428C17.7841 16.0293 16.6249 14.6415 15.1186 13.6605C13.6122 12.6795 11.8286 12.1506 10 12.1428H10.0001Z" fill="#037096"/>
</svg>