<svg width="24" height="24" viewBox="0 0 24 24" fill="#FCB900" xmlns="http://www.w3.org/2000/svg">
<path d="M21.709 9.63174L21.7091 9.63201C21.8127 9.9651 21.715 10.3262 21.4675 10.5522L21.4673 10.5524L17.104 14.5447L16.9979 14.6418L17.0284 14.7823L18.3151 20.6964C18.3151 20.6964 18.3151 20.6964 18.3151 20.6964C18.3893 21.0386 18.2607 21.3884 17.9952 21.5891L17.9952 21.5892C17.7324 21.788 17.3861 21.803 17.1105 21.63L17.1099 21.6296L12.1324 18.5242L12.0001 18.4417L11.8678 18.5242L6.88842 21.6296L6.88831 21.6297C6.75913 21.7103 6.61737 21.75 6.47581 21.75C6.31145 21.75 6.14672 21.6967 6.00374 21.5889C5.73879 21.389 5.60988 21.0396 5.68421 20.6963L6.9708 14.7823L7.00137 14.6418L6.8953 14.5447L2.53194 10.5516L2.53148 10.5512C2.28459 10.3264 2.18734 9.96484 2.29102 9.63214C2.3943 9.30069 2.67142 9.0748 2.99023 9.04393C2.99033 9.04392 2.99042 9.04391 2.99052 9.0439L8.76354 8.49699L8.91403 8.48274L8.97132 8.34285L11.2538 2.76904C11.3856 2.44828 11.6809 2.25 12.0001 2.25C12.3193 2.25 12.6145 2.44832 12.7464 2.7681C12.7464 2.76816 12.7464 2.76822 12.7464 2.76828L15.0288 8.34283L15.0861 8.48273L15.2366 8.49699L21.0092 9.04394L21.0093 9.04396C21.3286 9.07398 21.6064 9.30054 21.709 9.63174Z"  stroke="white" stroke-width="0.5"/>
</svg>
