<svg xmlns="http://www.w3.org/2000/svg" width="24" height="24" viewBox="0 0 24 24" fill="none">
  <path d="M8.91451 20.9975H5.82868C5.472 21.0127 5.11582 20.9574 4.78054 20.8348C4.44525 20.7122 4.13744 20.5248 3.87471 20.2831C3.61197 20.0415 3.39948 19.7504 3.24939 19.4266C3.0993 19.1028 3.01455 18.7526 3 18.396V5.60403C3.01455 5.24743 3.0993 4.8972 3.24939 4.57338C3.39948 4.24956 3.61197 3.9585 3.87471 3.71687C4.13744 3.47523 4.44525 3.28775 4.78054 3.16516C5.11582 3.04258 5.472 2.98729 5.82868 3.00245H8.91451C9.11911 3.00245 9.31533 3.08371 9.46001 3.22834C9.60469 3.37297 9.68597 3.56913 9.68597 3.77367C9.68597 3.97821 9.60469 4.17437 9.46001 4.319C9.31533 4.46364 9.11911 4.54489 8.91451 4.54489H5.82868C5.52326 4.51834 5.21933 4.61033 4.97994 4.80179C4.74054 4.99324 4.58405 5.26947 4.54292 5.57318V18.396C4.58405 18.6997 4.74054 18.9759 4.97994 19.1674C5.21933 19.3588 5.52326 19.4508 5.82868 19.4243H8.91451C9.11911 19.4243 9.31533 19.5055 9.46001 19.6501C9.60469 19.7948 9.68597 19.9909 9.68597 20.1955C9.68597 20.4 9.60469 20.5962 9.46001 20.7408C9.31533 20.8854 9.11911 20.9667 8.91451 20.9667V20.9975ZM16.1148 16.8844C16.0134 16.8849 15.913 16.8651 15.8194 16.8262C15.7258 16.7874 15.6408 16.7303 15.5696 16.6582C15.4251 16.5136 15.344 16.3175 15.344 16.1132C15.344 15.9088 15.4251 15.7128 15.5696 15.5682L19.1389 12L15.5696 8.43183C15.4938 8.36122 15.433 8.27608 15.3909 8.18148C15.3487 8.08688 15.326 7.98475 15.3242 7.8812C15.3224 7.77765 15.3414 7.67479 15.3802 7.57876C15.419 7.48273 15.4768 7.3955 15.55 7.32226C15.6233 7.24903 15.7105 7.1913 15.8066 7.15251C15.9027 7.11372 16.0056 7.09467 16.1091 7.0965C16.2127 7.09833 16.3149 7.12099 16.4095 7.16314C16.5041 7.2053 16.5893 7.26607 16.6599 7.34184L20.7744 11.455C20.9189 11.5996 21 11.7956 21 12C21 12.2044 20.9189 12.4004 20.7744 12.545L16.6599 16.6582C16.5887 16.7303 16.5038 16.7874 16.4102 16.8262C16.3166 16.8651 16.2161 16.8849 16.1148 16.8844Z" fill="#037096"/>
  <path d="M20 12.75H9C8.80109 12.75 8.61032 12.671 8.46967 12.5303C8.32902 12.3897 8.25 12.1989 8.25 12C8.25 11.8011 8.32902 11.6103 8.46967 11.4697C8.61032 11.329 8.80109 11.25 9 11.25H20C20.1989 11.25 20.3897 11.329 20.5303 11.4697C20.671 11.6103 20.75 11.8011 20.75 12C20.75 12.1989 20.671 12.3897 20.5303 12.5303C20.3897 12.671 20.1989 12.75 20 12.75Z" fill="#037096"/>
</svg>