<svg xmlns="http://www.w3.org/2000/svg" width="24" height="24" viewBox="0 0 24 24" fill="none">
  <path d="M15.2 12C15.2 12.6329 15.0123 13.2516 14.6607 13.7778C14.3091 14.3041 13.8093 14.7142 13.2246 14.9564C12.6399 15.1986 11.9965 15.262 11.3757 15.1385C10.755 15.015 10.1848 14.7103 9.73726 14.2627C9.28973 13.8152 8.98496 13.245 8.86149 12.6243C8.73801 12.0035 8.80138 11.3601 9.04359 10.7754C9.28579 10.1907 9.69594 9.69092 10.2222 9.3393C10.7484 8.98768 11.3671 8.8 12 8.8C12.8479 8.80264 13.6603 9.14063 14.2598 9.74017C14.8594 10.3397 15.1974 11.1521 15.2 12ZM22 7.6V16.4C22 17.8852 21.41 19.3096 20.3598 20.3598C19.3096 21.41 17.8852 22 16.4 22H7.6C6.11479 22 4.69041 21.41 3.6402 20.3598C2.59 19.3096 2 17.8852 2 16.4V7.6C2 6.11479 2.59 4.69041 3.6402 3.6402C4.69041 2.59 6.11479 2 7.6 2H16.4C17.8852 2 19.3096 2.59 20.3598 3.6402C21.41 4.69041 22 6.11479 22 7.6ZM16.8 12C16.8 11.0506 16.5185 10.1226 15.9911 9.33326C15.4636 8.54391 14.714 7.92868 13.8369 7.56538C12.9598 7.20208 11.9947 7.10702 11.0636 7.29223C10.1325 7.47744 9.27718 7.9346 8.60589 8.60589C7.9346 9.27718 7.47744 10.1325 7.29223 11.0636C7.10702 11.9947 7.20208 12.9598 7.56538 13.8369C7.92868 14.714 8.54391 15.4636 9.33326 15.9911C10.1226 16.5185 11.0506 16.8 12 16.8C13.273 16.8 14.4939 16.2943 15.3941 15.3941C16.2943 14.4939 16.8 13.273 16.8 12ZM18.4 6.8C18.4 6.56266 18.3296 6.33066 18.1978 6.13332C18.0659 5.93598 17.8785 5.78217 17.6592 5.69134C17.4399 5.60052 17.1987 5.57676 16.9659 5.62306C16.7331 5.66936 16.5193 5.78365 16.3515 5.95147C16.1837 6.11929 16.0694 6.33311 16.0231 6.56589C15.9768 6.79867 16.0005 7.03995 16.0913 7.25922C16.1822 7.47849 16.336 7.66591 16.5333 7.79776C16.7307 7.92962 16.9627 8 17.2 8C17.5183 8 17.8235 7.87357 18.0485 7.64853C18.2736 7.42348 18.4 7.11826 18.4 6.8Z" fill="#212839"/>
</svg>