<svg xmlns="http://www.w3.org/2000/svg" width="20" height="20" viewBox="0 0 20 20" fill="none">
  <path d="M20 10.2222C20 9.39999 19.932 8.79999 19.7846 8.17778H10.2041V11.8888H15.8277C15.7143 12.8111 15.1021 14.2 13.7415 15.1333L13.7224 15.2575L16.7516 17.5572L16.9615 17.5778C18.8889 15.8333 20 13.2666 20 10.2222Z" fill="#4285F4"/>
  <path d="M10.2041 20C12.9591 20 15.272 19.1111 16.9614 17.5778L13.7415 15.1333C12.8798 15.7222 11.7233 16.1333 10.2041 16.1333C7.50567 16.1333 5.21543 14.3889 4.39903 11.9778L4.27936 11.9877L1.12957 14.3766L1.08838 14.4889C2.76637 17.7555 6.2131 20 10.2041 20Z" fill="#34A853"/>
  <path d="M4.39906 11.9778C4.18364 11.3556 4.05897 10.6889 4.05897 10C4.05897 9.31106 4.18364 8.64442 4.38772 8.02221L4.38202 7.88969L1.19276 5.46243L1.08841 5.51107C0.396831 6.86664 0 8.38889 0 10C0 11.6111 0.396831 13.1333 1.08841 14.4888L4.39906 11.9778Z" fill="#FBBC05"/>
  <path d="M10.2041 3.86664C12.1201 3.86664 13.4126 4.67775 14.1496 5.35557L17.0294 2.6C15.2608 0.988893 12.9591 0 10.2041 0C6.2131 0 2.76637 2.24443 1.08838 5.51107L4.38769 8.02221C5.21543 5.61111 7.50567 3.86664 10.2041 3.86664Z" fill="#EB4335"/>
</svg>