<svg xmlns="http://www.w3.org/2000/svg" width="20" height="14" viewBox="0 0 20 14" fill="none">
  <path d="M19.65 1.02305C19.2489 0.392765 18.5418 0.00640786 17.7778 -2.28971e-05L2.22235 -2.28891e-05C1.45835 0.00639983 0.751245 0.392765 0.350098 1.02305L9.44726 7.05852C9.78231 7.28081 10.2179 7.28081 10.5529 7.05852L19.65 1.02305Z" fill="#E75A4D"/>
  <path d="M20 3.09986L10.3112 9.52367C10.2193 9.58376 10.1109 9.61602 10 9.61602C9.88911 9.61602 9.78073 9.58376 9.68884 9.52367L5.20377e-10 3.09986L4.92375e-10 3.15367L-4.55139e-09 11.8462C-4.84864e-09 12.4174 0.23414 12.9652 0.650899 13.3691C1.06765 13.7731 1.63283 14 2.22216 14L17.7776 14C18.367 14 18.9321 13.7731 19.3489 13.3691C19.7656 12.9652 19.9998 12.4174 19.9998 11.8462L19.9998 3.15367L20 3.09986Z" fill="#E75A4D"/>
</svg>