<svg xmlns="http://www.w3.org/2000/svg" width="20" height="20" viewBox="0 0 20 20" fill="none">
  <path d="M10 20C15.5228 20 20 15.5228 20 10C20 4.47715 15.5228 -3.8147e-06 10 -3.8147e-06C4.47715 -3.8147e-06 0 4.47715 0 10C0 15.5228 4.47715 20 10 20Z" fill="#63BB94"/>
  <path d="M16.1999 7.9975L17.4001 6.69775H14.7011C13.4014 5.79601 11.7036 5.2985 9.99962 5.2985C8.29564 5.2985 6.59788 5.79601 5.29813 6.69775H2.59912L3.79937 7.9975C3.09663 8.70024 2.59912 9.59576 2.59912 10.6965C2.59912 12.699 4.29688 14.3968 6.29937 14.3968C7.30061 14.3968 8.09663 13.9987 8.79937 13.3955L9.99962 14.6953L11.1999 13.3955C11.9026 13.9925 12.6986 14.3968 13.6999 14.3968C15.7024 14.3968 17.4001 12.699 17.4001 10.6965C17.4001 9.69527 16.9026 8.70024 16.1999 7.9975ZM6.29937 13.296C4.90012 13.296 3.79937 12.1953 3.79937 10.796C3.79937 9.39676 4.90012 8.29601 6.29937 8.29601C7.69862 8.29601 8.79937 9.39676 8.79937 10.796C8.79937 12.1953 7.69862 13.296 6.29937 13.296ZM9.99962 10.6965C9.99962 9.09825 8.79937 7.699 7.20111 6.99626C8.10285 6.69775 8.99838 6.49875 9.99962 6.49875C11.0009 6.49875 11.9026 6.69775 12.7981 7.09576C11.1999 7.699 9.99962 9.09825 9.99962 10.6965ZM13.6999 13.296C12.3006 13.296 11.1999 12.1953 11.1999 10.796C11.1999 9.39676 12.3006 8.29601 13.6999 8.29601C15.0991 8.29601 16.1999 9.39676 16.1999 10.796C16.1999 12.1953 15.0991 13.296 13.6999 13.296ZM13.6999 9.49626C12.9971 9.49626 12.4001 10.0933 12.4001 10.796C12.4001 11.4987 12.9971 12.0958 13.6999 12.0958C14.4026 12.0958 14.9996 11.4987 14.9996 10.796C14.9996 10.0995 14.4026 9.49626 13.6999 9.49626ZM7.59912 10.796C7.59912 11.4987 7.00211 12.0958 6.29937 12.0958C5.59663 12.0958 4.99962 11.4987 4.99962 10.796C4.99962 10.0933 5.59663 9.49626 6.29937 9.49626C7.00211 9.49626 7.59912 10.0995 7.59912 10.796Z" fill="#010202"/>
</svg>