<svg xmlns="http://www.w3.org/2000/svg" width="14" height="14" viewBox="0 0 14 14" fill="#5C5E62">
  <path d="M7.00025 6.99997C6.01951 6.99997 5.07886 6.63123 4.38535 5.97486C3.69185 5.31849 3.30225 4.42821 3.30225 3.49998C3.30225 2.57176 3.69185 1.68148 4.38535 1.02511C5.07886 0.368741 6.01951 0 7.00025 0C7.981 0 8.92165 0.368741 9.61515 1.02511C10.3087 1.68148 10.6983 2.57176 10.6983 3.49998C10.6983 4.42821 10.3087 5.31849 9.61515 5.97486C8.92165 6.63123 7.981 6.99997 7.00025 6.99997ZM7.00025 0.999995C6.29968 0.999995 5.62789 1.26339 5.1325 1.73225C4.63712 2.20111 4.35882 2.83693 4.35882 3.49998C4.35882 4.16304 4.63712 4.79886 5.1325 5.26772C5.62789 5.73657 6.29968 5.99997 7.00025 5.99997C7.70082 5.99997 8.37262 5.73658 8.868 5.26772C9.36339 4.79886 9.64169 4.16304 9.64169 3.49998C9.64169 2.83693 9.36339 2.2011 8.868 1.73225C8.37262 1.26339 7.70082 0.999995 7.00025 0.999995Z" />
  <path d="M12.4043 13.9999H1.59556C1.06646 14.0024 0.571046 13.7547 0.274843 13.3399C-0.0146519 12.9484 -0.0799843 12.4463 0.100439 11.9999C0.638386 10.6815 1.58541 9.54819 2.81686 8.74882C4.04831 7.94948 5.50665 7.52171 6.99999 7.52171C8.49332 7.52171 9.95154 7.94951 11.1831 8.74882C12.4146 9.54816 13.3616 10.6815 13.8995 11.9999C14.08 12.4496 14.0147 12.9546 13.7251 13.3499C13.4265 13.761 12.9315 14.0046 12.4044 13.9999H12.4043ZM7.00008 8.49997C5.72018 8.50543 4.47161 8.87562 3.41709 9.56236C2.36257 10.2491 1.55121 11.2205 1.0885 12.3499C1.03071 12.4918 1.05265 12.6516 1.14663 12.7749C1.2458 12.9176 1.41514 13.0025 1.59567 12.9999H12.4044C12.585 13.0025 12.7543 12.9176 12.8535 12.7749C12.9474 12.6516 12.9694 12.4918 12.9116 12.3499C12.4489 11.2205 11.6375 10.2491 10.583 9.56236C9.52854 8.87565 8.28001 8.50545 7.00001 8.49997H7.00008Z" />
</svg>