<svg xmlns="http://www.w3.org/2000/svg" width="12" height="12" viewBox="0 0 12 12" fill="none">
  <path fill-rule="evenodd" clip-rule="evenodd" d="M4.99298 0C4.00546 0 3.04012 0.292833 2.21903 0.841469C1.39794 1.3901 0.757977 2.1699 0.38007 3.08225C0.00216335 3.9946 -0.0967143 4.99852 0.095941 5.96706C0.288596 6.93561 0.764132 7.82527 1.46241 8.52355C2.16069 9.22183 3.05036 9.69737 4.0189 9.89002C4.98744 10.0827 5.99137 9.9838 6.90371 9.60589C7.36869 9.41329 7.79923 9.15263 8.18229 8.83461L11.2125 11.8648C11.3927 12.045 11.685 12.045 11.8652 11.8648C12.0454 11.6846 12.0454 11.3923 11.8652 11.2121L8.83498 8.18186C8.94491 8.04942 9.04826 7.91096 9.14449 7.76693C9.69313 6.94584 9.98596 5.9805 9.98596 4.99298V4.99295C9.98588 3.66876 9.45981 2.39884 8.52347 1.46249C7.58713 0.526153 6.3172 8.42901e-05 4.99301 0L4.99298 0.461538V0ZM7.87075 2.11521C7.10751 1.35197 6.07236 0.923153 4.99298 0.923077L9.06289 4.99298C9.06281 3.9136 8.63399 2.87845 7.87075 2.11521ZM2.73187 1.60898C3.40115 1.16178 4.18801 0.923083 4.99295 0.923077L9.06289 4.99301C9.06288 5.79795 8.82418 6.58481 8.37698 7.2541C7.92978 7.92339 7.29415 8.44504 6.55047 8.75308C5.80679 9.06112 4.98847 9.14172 4.19898 8.98468C3.4095 8.82764 2.68431 8.44002 2.11513 7.87084C1.54594 7.30165 1.15832 6.57646 1.00128 5.78698C0.844243 4.9975 0.924841 4.17917 1.23288 3.4355C1.54092 2.69182 2.06257 2.05619 2.73187 1.60898Z" fill="#212839"/>
</svg>