<svg xmlns="http://www.w3.org/2000/svg" width="24" height="24" viewBox="0 0 24 24" fill="none">
  <path d="M19.3333 7.34884H11.8C10.6954 7.34884 9.8 8.24427 9.8 9.34884V12.959H8.78461V11.052C8.78343 9.97159 8.35997 8.93573 7.60712 8.17172C6.85427 7.40772 5.83353 6.97796 4.76883 6.97674H2.46667V4.73333C2.46667 4.32832 2.13834 4 1.73333 4C1.32832 4 1 4.32832 1 4.73333V19.2667C1 19.6717 1.32832 20 1.73333 20C2.13834 20 2.46667 19.6717 2.46667 19.2667V17.7794L21.5333 17.9342V19.2667C21.5333 19.6717 21.8617 20 22.2667 20C22.6717 20 23 19.6717 23 19.2667V11.0698C22.9989 10.0833 22.6122 9.13748 21.9248 8.43991C21.2374 7.74234 20.3055 7.34996 19.3333 7.34884ZM2.46667 8.46512H4.76883C5.44466 8.46589 6.09259 8.73868 6.57048 9.22364C7.04837 9.7086 7.31718 10.3661 7.31794 11.052V12.9589H2.46667V8.46512ZM21.5333 16.4458L2.46667 16.291V14.4474H21.5333V16.4458ZM21.5333 12.959H11.2667V8.83721H19.3333C19.9166 8.83789 20.4758 9.07332 20.8882 9.49186C21.3007 9.9104 21.5327 10.4779 21.5333 11.0698V12.959Z" fill="#212839"/>
</svg>