<svg xmlns="http://www.w3.org/2000/svg" width="20" height="20" viewBox="0 0 20 20" fill="none">
  <path d="M17.2615 1.78406H15.3181V0.751212C15.3181 0.328786 15.0256 0 14.6493 0C14.2733 0 13.9805 0.32861 13.9805 0.751212V1.78406H5.9977V0.751212C5.9977 0.328786 5.70514 0 5.3289 0C4.95282 0 4.66011 0.32861 4.66011 0.751212V1.78406H2.71671C1.23292 1.78406 0 3.16891 0 4.83556V16.9475C0 18.6141 1.23292 19.999 2.71671 19.999H17.2823C18.7661 19.999 19.999 18.6141 19.999 16.9475V4.85903C19.999 3.16899 18.7662 1.78406 17.2615 1.78406ZM1.31673 4.85894C1.4285 4.2855 1.94369 3.3097 2.696 3.3097H17.2616C18.0347 3.3097 18.5705 4.2855 18.6408 4.85894V6.78379L1.3168 6.78363L1.31673 4.85894ZM18.6617 16.9709C18.6617 17.8393 17.8562 18.5705 17.2824 18.5201L2.71683 18.52C2.14275 18.5705 1.33755 17.8157 1.33755 16.9707V8.26233H18.6616L18.6617 16.9709Z" fill="#5C5E62"/>
  <path fill-rule="evenodd" clip-rule="evenodd" d="M4.59496 0.882477C4.59496 0.403855 4.93169 0.00100708 5.39517 0.00100708C5.85886 0.00100708 6.19539 0.404074 6.19539 0.882477V1.75993H13.7841V0.882477C13.7841 0.403855 14.1209 0.00100708 14.5843 0.00100708C15.048 0.00100708 15.3846 0.404074 15.3846 0.882477V1.75993H17.3427L17.4594 1.77761C18.893 1.94683 19.9995 3.31532 19.9995 4.93244V16.8506C19.9995 18.5558 18.7358 20 17.1802 20H2.81978C1.26415 20 0.000488281 18.5558 0.000488281 16.8506V4.90929C0.000488281 3.20417 1.26415 1.75993 2.81978 1.75993H4.59496V0.882477ZM16.8442 2.04161H15.1029V0.882477C15.1029 0.527927 14.8625 0.282683 14.5843 0.282683C14.3063 0.282683 14.0658 0.527799 14.0658 0.882477V2.04161H5.91371V0.882477C5.91371 0.527927 5.67337 0.282683 5.39517 0.282683C5.11709 0.282683 4.87664 0.527799 4.87664 0.882477V2.04161H2.81978C1.4496 2.04161 0.282164 3.32807 0.282164 4.90929V16.8506C0.282164 18.4319 1.4496 19.7183 2.81978 19.7183H17.1802C18.5504 19.7183 19.7178 18.4319 19.7178 16.8506V4.93244C19.7178 3.32815 18.5504 2.04169 17.1597 2.04169L16.8442 2.04161ZM2.79936 3.54577C2.14907 3.54577 1.58035 4.13953 1.58035 4.93235L1.58042 6.68909L18.3788 6.68925V4.93235C18.3788 4.15973 17.828 3.54577 17.1598 3.54577H2.79936ZM1.29867 4.93235C1.29867 4.01273 1.96622 3.26409 2.79936 3.26409H17.1598C18.0161 3.26409 18.6605 4.03875 18.6605 4.93235V6.97093L1.29875 6.97077L1.29867 4.93235ZM1.3192 8.14697H18.6809L18.681 16.8737C18.681 17.7933 18.0134 18.542 17.1803 18.542L2.81989 18.5418C1.96359 18.5418 1.3192 17.7672 1.3192 16.8735V8.14697ZM1.60088 8.42864V16.8735C1.60088 17.6462 2.15162 18.2601 2.81989 18.2601L17.1803 18.2603C17.8306 18.2603 18.3993 17.6665 18.3993 16.8737L18.3992 8.42864H1.60088Z" fill="#5C5E62"/>
</svg>