<svg xmlns="http://www.w3.org/2000/svg" width="24" height="24" viewBox="0 0 24 24" fill="none">
  <path d="M11.3 1C11.4896 1 11.6536 1.06803 11.7922 1.2041C11.9307 1.34017 12 1.5013 12 1.6875V9.25C12 9.62956 11.9271 9.98405 11.7812 10.3135C11.6354 10.6429 11.4349 10.9329 11.1797 11.1836C10.9245 11.4342 10.6255 11.6312 10.2828 11.7744C9.9401 11.9176 9.57917 11.9928 9.2 12V22.3125C9.2 22.4987 9.13073 22.6598 8.99219 22.7959C8.85365 22.932 8.68958 23 8.5 23C8.31042 23 8.14635 22.932 8.00781 22.7959C7.86927 22.6598 7.8 22.4987 7.8 22.3125V12C7.41354 12 7.0526 11.9284 6.71719 11.7852C6.38177 11.6419 6.08646 11.445 5.83125 11.1943C5.57604 10.9437 5.37552 10.6536 5.22969 10.3242C5.08385 9.99479 5.00729 9.63672 5 9.25V1.6875C5 1.5013 5.06927 1.34017 5.20781 1.2041C5.34635 1.06803 5.51042 1 5.7 1C5.88958 1 6.05365 1.06803 6.19219 1.2041C6.33073 1.34017 6.4 1.5013 6.4 1.6875V9.25C6.4 9.44336 6.43646 9.6224 6.50937 9.78711C6.58229 9.95182 6.68073 10.0951 6.80469 10.2168C6.92865 10.3385 7.07812 10.4388 7.25312 10.5176C7.42812 10.5964 7.61042 10.6322 7.8 10.625V1.6875C7.8 1.5013 7.86927 1.34017 8.00781 1.2041C8.14635 1.06803 8.31042 1 8.5 1C8.68958 1 8.85365 1.06803 8.99219 1.2041C9.13073 1.34017 9.2 1.5013 9.2 1.6875V10.625C9.39687 10.625 9.57917 10.5892 9.74687 10.5176C9.91458 10.446 10.0604 10.3493 10.1844 10.2275C10.3083 10.1058 10.4104 9.95898 10.4906 9.78711C10.5708 9.61523 10.6073 9.4362 10.6 9.25V1.6875C10.6 1.5013 10.6693 1.34017 10.8078 1.2041C10.9464 1.06803 11.1104 1 11.3 1ZM19 1V22.3125C19 22.4987 18.9307 22.6598 18.7922 22.7959C18.6536 22.932 18.4896 23 18.3 23C18.1104 23 17.9464 22.932 17.8078 22.7959C17.6693 22.6598 17.6 22.4987 17.6 22.3125V16.125C17.3302 16.125 17.0385 16.1286 16.725 16.1357C16.4115 16.1429 16.1016 16.1393 15.7953 16.125C15.4891 16.1107 15.1901 16.0677 14.8984 15.9961C14.6068 15.9245 14.3516 15.8135 14.1328 15.6631C13.9141 15.5127 13.7354 15.3086 13.5969 15.0508C13.4583 14.793 13.3927 14.4635 13.4 14.0625V5.8125C13.4 5.14648 13.5276 4.52344 13.7828 3.94336C14.038 3.36328 14.388 2.85482 14.8328 2.41797C15.2776 1.98112 15.7953 1.63737 16.3859 1.38672C16.9766 1.13607 17.6146 1.00716 18.3 1H19ZM17.6 2.43945C17.1917 2.51823 16.8198 2.66146 16.4844 2.86914C16.149 3.07682 15.8536 3.33464 15.5984 3.64258C15.3432 3.95052 15.1464 4.28353 15.0078 4.6416C14.8693 4.99967 14.8 5.38997 14.8 5.8125V14.0625C14.8 14.2487 14.8693 14.4098 15.0078 14.5459C15.1464 14.682 15.3104 14.75 15.5 14.75H17.6V2.43945Z" fill="#212839"/>
</svg>