<svg xmlns="http://www.w3.org/2000/svg" width="24" height="24" viewBox="0 0 24 24" fill="none">
  <path d="M19.5 6.5H11.8C10.6954 6.5 9.8 7.39543 9.8 8.5V14.959H8.78461V13.052C8.78343 11.9716 8.35997 10.9357 7.60712 10.1717C6.85427 9.40772 5.83353 8.97796 4.76883 8.97674H2.46667V6H1V21.2667C1 21.6717 1.32832 22 1.73333 22C2.13834 22 2.46667 21.6717 2.46667 21.2667V19.7794L21.5333 19.9342V21.2667C21.5333 21.6717 21.8617 22 22.2667 22C22.6717 22 23 21.6717 23 21.2667V13.0698C22.9989 12.0833 23.1874 9.19757 22.5 8.5C22 7.5 20.4721 6.50112 19.5 6.5ZM2.46667 10.4651H4.76883C5.44466 10.4659 6.09259 10.7387 6.57048 11.2236C7.04837 11.7086 7.31718 12.3661 7.31794 13.052V14.9589H2.46667V10.4651ZM21.5333 18.4458L2.46667 18.291V16.4474H21.5333V18.4458ZM21.5333 14.959H11.2667V8H19.5C20.0833 8.00068 21.0876 8.58146 21.5 9C21.9124 9.41854 21.5327 12.4779 21.5333 13.0698V14.959Z" fill="#212839"/>
  <path d="M19.3333 6.18605H11.8C10.6954 6.18605 9.8 7.08148 9.8 8.18605V13.1988H8.78461V10.8151C8.78343 9.46449 8.35997 6.44873 7.60712 5.49373C6.85427 4.53872 5.83353 4.00152 4.76883 4H2.46667V2.73333C2.46667 2.32832 2.13834 2 1.73333 2C1.32832 2 1 2.32832 1 2.73333V21.2667C1 21.6717 1.32832 22 1.73333 22C2.13834 22 2.46667 21.6717 2.46667 21.2667V13.1987L11.2667 13.1988H21.5333V21.2667C21.5333 21.6717 21.8617 22 22.2667 22C22.6717 22 23 21.6717 23 21.2667V10.8372C22.9989 9.60407 22.6122 8.42185 21.9248 7.54989C21.2374 6.67793 20.3055 6.18745 19.3333 6.18605ZM2.46667 5.86047H4.76883C5.44466 5.86143 6.09259 6.20242 6.57048 6.80862C7.04837 7.41482 7.31718 9.95765 7.31794 10.8149V13.1987H2.46667V5.86047ZM21.5333 13.1988H11.2667V8.04651H19.3333C19.9166 8.04736 20.4758 8.34165 20.8882 8.86482C21.3007 9.388 21.5327 10.0973 21.5333 10.8372V13.1988Z" fill="#212839"/>
</svg>