<svg xmlns="http://www.w3.org/2000/svg" width="22" height="10" viewBox="0 0 22 10" fill="none">
  <path fill-rule="evenodd" clip-rule="evenodd" d="M3.17876 0.343831C3.41577 0.12368 3.73723 0 4.07242 0H6.6937C7.02889 0 7.35035 0.12368 7.58736 0.343831C7.82438 0.563982 7.95753 0.862572 7.95753 1.17391V8.82609C7.95753 8.98025 7.92484 9.1329 7.86133 9.27532C7.79781 9.41775 7.70472 9.54716 7.58736 9.65617C7.47001 9.76517 7.33068 9.85165 7.17735 9.91064C7.02401 9.96964 6.85966 10 6.6937 10H4.07242C3.90646 10 3.74212 9.96964 3.58878 9.91064C3.43544 9.85165 3.29612 9.76517 3.17876 9.65617C3.0614 9.54716 2.96831 9.41775 2.9048 9.27532C2.84128 9.1329 2.80859 8.98025 2.80859 8.82609V1.17391C2.80859 0.862572 2.94175 0.563982 3.17876 0.343831ZM4.21285 1.30435V8.69565H6.55327V1.30435H4.21285ZM14.4128 0.343831C14.6498 0.123679 14.9713 0 15.3065 0H17.9277C18.2629 0 18.5844 0.123679 18.8214 0.343831C19.0584 0.563983 19.1916 0.862573 19.1916 1.17391V8.82609C19.1916 8.98024 19.1589 9.13289 19.0954 9.27532C19.0319 9.41775 18.9388 9.54716 18.8214 9.65617C18.704 9.76518 18.5647 9.85165 18.4114 9.91064C18.258 9.96964 18.0937 10 17.9277 10H15.3065C15.1405 10 14.9762 9.96964 14.8228 9.91064C14.6695 9.85165 14.5302 9.76518 14.4128 9.65617C14.2954 9.54716 14.2024 9.41775 14.1388 9.27532C14.0753 9.13289 14.0426 8.98024 14.0426 8.82609V1.17391C14.0426 0.862573 14.1758 0.563983 14.4128 0.343831ZM15.4469 1.30435V8.69565H17.7873V1.30435H15.4469Z" fill="#212839"/>
  <path fill-rule="evenodd" clip-rule="evenodd" d="M1.40426 3.04322V6.95627H2.80851V3.04322H1.40426ZM0.370167 2.08271C0.607182 1.86255 0.928643 1.73888 1.26383 1.73888H2.94894C3.28412 1.73888 3.60558 1.86255 3.8426 2.08271C4.07961 2.30286 4.21277 2.60145 4.21277 2.91279V7.0867C4.21277 7.39804 4.07961 7.69663 3.8426 7.91678C3.60558 8.13694 3.28412 8.26062 2.94894 8.26062H1.26383C0.928643 8.26062 0.607182 8.13694 0.370167 7.91678C0.133152 7.69663 0 7.39804 0 7.0867V2.91279C0 2.60145 0.133152 2.30286 0.370167 2.08271ZM18.1574 2.08271C18.3944 1.86255 18.7159 1.73888 19.0511 1.73888H20.7362C21.0714 1.73888 21.3928 1.86255 21.6298 2.08271C21.8668 2.30286 22 2.60145 22 2.91279V7.0867C22 7.39804 21.8668 7.69663 21.6298 7.91678C21.3928 8.13694 21.0714 8.26062 20.7362 8.26062H19.0511C18.7159 8.26062 18.3944 8.13694 18.1574 7.91678C17.9204 7.69663 17.7872 7.39804 17.7872 7.0867V2.91279C17.7872 2.60145 17.9204 2.30286 18.1574 2.08271ZM19.1915 3.04322V6.95627H20.5957V3.04322H19.1915ZM6.55319 4.99975C6.55319 4.63956 6.86754 4.34757 7.25532 4.34757H14.7447C15.1325 4.34757 15.4468 4.63956 15.4468 4.99975C15.4468 5.35993 15.1325 5.65192 14.7447 5.65192H7.25532C6.86754 5.65192 6.55319 5.35993 6.55319 4.99975Z" fill="#212839"/>
</svg>