<svg xmlns="http://www.w3.org/2000/svg" width="22" height="18" viewBox="0 0 22 18" fill="none">
  <path fill-rule="evenodd" clip-rule="evenodd" d="M2.81393 1.54286C2.10752 1.54286 1.53487 2.11849 1.53487 2.82857V15.1714C1.53487 15.8815 2.10752 16.4571 2.81393 16.4571H19.1859C19.8923 16.4571 20.4649 15.8815 20.4649 15.1714V2.82857C20.4649 2.11849 19.8923 1.54286 19.1859 1.54286H2.81393ZM0 2.82857C0 1.26639 1.25984 0 2.81393 0H19.1859C20.74 0 21.9998 1.26639 21.9998 2.82857V15.1714C21.9998 16.7336 20.74 18 19.1859 18H2.81393C1.25984 18 0 16.7336 0 15.1714V2.82857Z" fill="#212839"/>
  <path fill-rule="evenodd" clip-rule="evenodd" d="M0.119809 3.44341C0.347128 3.08382 0.821401 2.97755 1.17913 3.20605L10.3553 9.06741C10.5487 9.18871 10.772 9.25304 11 9.25304C11.228 9.25304 11.4513 9.18871 11.6447 9.06741C11.6453 9.06703 11.6459 9.06665 11.6465 9.06628L20.8209 3.20605C21.1786 2.97755 21.6529 3.08382 21.8802 3.44341C22.1075 3.80299 22.0018 4.27974 21.6441 4.50824L12.4614 10.3737C12.0234 10.6496 11.5169 10.7959 11 10.7959C10.4831 10.7959 9.97664 10.6496 9.5386 10.3737L9.53445 10.3711L0.355936 4.50824C-0.00179159 4.27974 -0.107509 3.80299 0.119809 3.44341Z" fill="#212839"/>
</svg>