<svg xmlns="http://www.w3.org/2000/svg" width="21" height="15" viewBox="0 0 21 15" fill="none">
<path fill-rule="evenodd" clip-rule="evenodd" d="M6.91389 2.82483C6.85637 2.82483 6.79449 2.84783 6.74379 2.89948C6.69207 2.95217 6.6578 3.02991 6.6578 3.11704V5.35727H19.5991V3.11704C19.5991 3.02991 19.5649 2.95217 19.5131 2.89948C19.4624 2.84783 19.4006 2.82483 19.343 2.82483H6.91389ZM5.73189 1.95713C6.03979 1.64346 6.46427 1.46121 6.91389 1.46121H19.343C19.7927 1.46121 20.2171 1.64346 20.525 1.95713C20.8319 2.26977 20.9991 2.68752 20.9991 3.11704V6.03908C20.9991 6.41563 20.6857 6.72089 20.2991 6.72089H5.95781C5.57121 6.72089 5.25781 6.41563 5.25781 6.03908V3.11704C5.25781 2.68751 5.42501 2.26977 5.73189 1.95713Z" fill="#212839"/>
<path fill-rule="evenodd" clip-rule="evenodd" d="M0.0392096 0.45754C0.166479 0.101976 0.565579 -0.0857724 0.930625 0.038191L2.34941 0.519986C2.35976 0.523239 2.37001 0.52672 2.38015 0.530425L3.79889 1.0122C4.16393 1.13617 4.35669 1.5249 4.22942 1.88046C4.10215 2.23603 3.70305 2.42378 3.33801 2.29981L2.83431 2.12877V5.35726H5.95867C6.34526 5.35726 6.65866 5.66252 6.65866 6.03907V10.9495L7.67895 9.73689C7.70547 9.65171 7.74966 9.57022 7.812 9.49764L11.1583 5.60159C11.2913 5.44674 11.4879 5.35726 11.6952 5.35726H14.5635C14.7707 5.35726 14.9674 5.44674 15.1003 5.60159L18.4467 9.49764C18.509 9.57022 18.5532 9.65171 18.5797 9.73689L19.6 10.9495V6.03907C19.6 5.66252 19.9134 5.35726 20.3 5.35726C20.6866 5.35726 21 5.66252 21 6.03907V12.8515C21 12.855 21 12.8585 21 12.862V14.3182C21 14.6947 20.6866 15 20.3 15C19.9134 15 19.6 14.6947 19.6 14.3182V13.1009L14.2321 6.72088H12.0266L6.65866 13.1009V14.3182C6.65866 14.6947 6.34526 15 5.95867 15C5.57207 15 5.25867 14.6947 5.25867 14.3182V12.862C5.25865 12.8585 5.25865 12.855 5.25867 12.8515V6.72088H2.13432C1.74772 6.72088 1.43432 6.41563 1.43432 6.03907V1.65336L0.469742 1.3258C0.104696 1.20184 -0.0880598 0.813103 0.0392096 0.45754Z" fill="#212839"/>
</svg>