<svg xmlns="http://www.w3.org/2000/svg" width="24" height="24" viewBox="0 0 24 24" fill="none">
  <path fill-rule="evenodd" clip-rule="evenodd" d="M9.04689 2.40426C6.61422 2.40426 4.78069 4.29324 4.78069 6.62527V7.10244H14.4665V6.48644C14.4665 3.34387 17.0376 1 20.2098 1C20.5976 1 20.9119 1.31435 20.9119 1.70213C20.9119 2.0899 20.5976 2.40426 20.2098 2.40426C17.7356 2.40426 15.8707 4.19479 15.8707 6.48644V16.1954C15.8707 16.5832 15.5564 16.8976 15.1686 16.8976C14.7808 16.8976 14.4665 16.5832 14.4665 16.1954V14.6091H4.78069V19.2467C4.78069 19.6344 4.46634 19.9488 4.07856 19.9488C3.69079 19.9488 3.37644 19.6344 3.37644 19.2467V6.62527C3.37644 3.52003 5.83633 1 9.04689 1C9.43467 1 9.74902 1.31435 9.74902 1.70213C9.74902 2.0899 9.43467 2.40426 9.04689 2.40426ZM4.78069 8.5067V13.2049H14.4665V8.5067H4.78069ZM11.8529 21.397C10.4363 22.1665 8.90194 23 6.3837 23C4.07747 23 2.30988 21.8585 1.18564 20.6376C0.922959 20.3524 0.941256 19.9082 1.22651 19.6455C1.51176 19.3828 1.95594 19.4011 2.21862 19.6864C3.15396 20.7021 4.57079 21.5957 6.3837 21.5957C8.53695 21.5957 9.80888 20.9093 11.1969 20.1553L11.2105 20.1479C12.6273 19.3783 14.1622 18.5445 16.6816 18.5445C19.0669 18.5445 21.1861 19.7764 22.7184 20.9225C23.0289 21.1547 23.0924 21.5947 22.8601 21.9053C22.6279 22.2158 22.1879 22.2792 21.8773 22.047C20.4153 20.9534 18.6024 19.9488 16.6816 19.9488C14.5275 19.9488 13.2551 20.6353 11.8672 21.3892L11.8529 21.397Z" fill="#212839"/>
</svg>