<svg xmlns="http://www.w3.org/2000/svg" width="24" height="24" viewBox="0 0 24 24" fill="#ffffff">
  <path d="M8.21638 19.8194L12.2658 15.9572C12.5747 15.6375 12.6041 15.1253 12.3663 14.7889C12.1285 14.4525 11.648 14.3971 11.3576 14.6727L8.47672 17.4229L8.47672 4.82765C8.47672 4.37063 8.1567 4 7.76207 4C7.36744 4 7.04742 4.37062 7.04742 4.82765L7.04742 17.4229L4.16659 14.6727C3.87615 14.3973 3.40243 14.4593 3.15785 14.7889C2.90562 15.1289 2.96793 15.6818 3.25837 15.9572L7.30776 19.8194C7.61299 20.0709 7.9207 20.0493 8.21599 19.8194L8.21638 19.8194Z" fill="#fff"/>
  <path d="M15.7836 4.18064L11.7342 8.04285C11.4253 8.36247 11.3959 8.87473 11.6337 9.21109C11.8715 9.54745 12.352 9.60287 12.6424 9.32732L15.5233 6.57714L15.5233 19.1724C15.5233 19.6294 15.8433 20 16.2379 20C16.6326 20 16.9526 19.6294 16.9526 19.1724L16.9526 6.57714L19.8334 9.32732C20.1239 9.60268 20.5976 9.54072 20.8422 9.21109C21.0944 8.87107 21.0321 8.31822 20.7416 8.04285L16.6922 4.18064C16.387 3.92913 16.0793 3.95068 15.784 4.18064L15.7836 4.18064Z" fill="#fff"/>
</svg>