<svg xmlns="http://www.w3.org/2000/svg" width="24" height="24" viewBox="0 0 24 24" fill="none">
  <path d="M16.1818 5.55599C15.058 4.28221 13.796 3.13272 12.4182 2.12792C12.2952 2.04461 12.1494 2 12 2C11.8506 2 11.7048 2.04461 11.5818 2.12792C10.204 3.13272 8.94196 4.28221 7.81818 5.55599C5.31818 8.36807 4 11.3409 4 14.144C4 16.2275 4.84285 18.2258 6.34315 19.699C7.84344 21.1723 9.87827 22 12 22C14.1217 22 16.1566 21.1723 17.6569 19.699C19.1571 18.2258 20 16.2275 20 14.144C20 11.3409 18.6818 8.36807 16.1818 5.55599ZM12 20.5716C10.2648 20.5693 8.60131 19.8913 7.37432 18.6864C6.14733 17.4815 5.45695 15.848 5.45455 14.144C5.45455 9.03762 10.5 4.77039 12 3.60985C13.5 4.77039 18.5455 9.03762 18.5455 14.144C18.543 15.848 17.8527 17.4815 16.6257 18.6864C15.3987 19.8913 13.7352 20.5693 12 20.5716ZM17.0182 14.9832C16.8419 16.0037 16.3462 16.945 15.6 17.6761C14.8538 18.4073 13.8942 18.892 12.8545 19.0629H12.7364C12.5531 19.0638 12.3763 18.9968 12.2412 18.8751C12.1062 18.7535 12.0228 18.5863 12.0079 18.407C11.993 18.2276 12.0475 18.0493 12.1607 17.9078C12.2738 17.7662 12.4372 17.6718 12.6182 17.6435C13.3592 17.5217 14.043 17.1758 14.5743 16.6541C15.1055 16.1324 15.4578 15.4609 15.5818 14.7332C15.5983 14.6405 15.6332 14.5518 15.6847 14.4724C15.7362 14.393 15.8031 14.3244 15.8817 14.2704C15.9602 14.2165 16.0489 14.1784 16.1425 14.1582C16.2362 14.138 16.3329 14.1362 16.4273 14.1529C16.5223 14.168 16.6132 14.2016 16.6947 14.2518C16.7762 14.302 16.8466 14.3678 16.9017 14.4452C16.9568 14.5226 16.9956 14.6102 17.0156 14.7026C17.0356 14.795 17.0365 14.8904 17.0182 14.9832Z" fill="#212839"/>
  <path d="M3 2L21 22" stroke="#212839" stroke-width="1.5" stroke-linecap="round"/>
</svg>