<svg xmlns="http://www.w3.org/2000/svg" width="24" height="24" viewBox="0 0 24 24" fill="#212839">
  <path d="M12 1C9.08262 1 6.28479 2.15888 4.22179 4.22179C2.15888 6.2847 1 9.08276 1 12C1 14.9172 2.15888 17.7152 4.22179 19.7782C6.28469 21.8411 9.08276 23 12 23C14.9172 23 17.7152 21.8411 19.7782 19.7782C21.8411 17.7153 23 14.9172 23 12C22.9967 9.08356 21.8367 6.28762 19.7745 4.22556C17.7124 2.16341 14.9164 1.00339 12.0001 1.00009L12 1ZM21.4961 11.2669H17.1173C17.0182 7.7468 16.219 4.7795 14.9907 2.95457V2.95439C16.7724 3.54646 18.3399 4.65099 19.497 6.1296C20.6542 7.60816 21.3496 9.39504 21.4961 11.2668V11.2669ZM12 21.5338C10.3426 21.5338 8.5086 17.9537 8.34878 12.7336H15.6513C15.4913 17.9538 13.6573 21.5338 11.9999 21.5338H12ZM8.34878 11.2669C8.50862 6.04671 10.3426 2.46664 12 2.46664C13.6574 2.46664 15.4914 6.04676 15.6512 11.2669H8.34878ZM9.00879 2.95457C7.78103 4.77973 6.98181 7.74671 6.88271 11.2669H2.50388C2.65047 9.39499 3.34581 7.60816 4.50305 6.12969C5.66009 4.65112 7.22761 3.54655 9.00931 2.95448L9.00879 2.95457ZM2.50393 12.7336H6.88276C6.98183 16.2537 7.78108 19.221 9.00935 21.0459V21.0461C7.22766 20.454 5.66014 19.3495 4.50309 17.8709C3.34586 16.3923 2.65049 14.6054 2.50393 12.7336V12.7336ZM14.9908 21.0459C16.2192 19.2206 17.0186 16.2514 17.1174 12.7336H21.4963V12.7334C21.3497 14.6053 20.6543 16.3921 19.4971 17.8706C18.34 19.3492 16.7725 20.4537 14.9908 21.0458V21.0459Z" />
</svg>