<svg xmlns="http://www.w3.org/2000/svg" width="24" height="24" viewBox="0 0 24 24" fill="none">
  <path d="M15.6663 14.9557C15.7353 15.0262 15.7907 15.1109 15.8291 15.2048C15.8675 15.2988 15.8881 15.4001 15.8898 15.5028C15.8914 15.6056 15.8741 15.7076 15.8389 15.803C15.8036 15.8983 15.751 15.9851 15.6843 16.0582C15.6177 16.1335 15.538 16.1939 15.4498 16.2357C15.3616 16.2776 15.2667 16.3002 15.1704 16.3021C14.9818 16.2998 14.8012 16.2195 14.6655 16.0777C13.9481 15.3392 12.9958 14.9273 12.0057 14.9273C11.0156 14.9273 10.0633 15.3392 9.34596 16.0777C9.27898 16.1544 9.19833 16.2156 9.10888 16.2576C9.01943 16.2996 8.92304 16.3216 8.82553 16.3221C8.72802 16.3227 8.63142 16.3019 8.54157 16.2609C8.45171 16.2199 8.37047 16.1596 8.30275 16.0837C8.23503 16.0078 8.18224 15.9178 8.14757 15.8191C8.1129 15.7205 8.09707 15.6153 8.10103 15.5099C8.105 15.4044 8.12867 15.301 8.17064 15.2057C8.2126 15.1105 8.27197 15.0254 8.34517 14.9557C9.33031 13.9347 10.6417 13.3648 12.0057 13.3648C13.3697 13.3648 14.6811 13.9347 15.6663 14.9557ZM12.0057 8.68199C9.48961 8.67008 7.07145 9.73646 5.27968 11.6481C5.20679 11.7184 5.14785 11.804 5.10644 11.8998C5.06503 11.9955 5.04201 12.0993 5.03878 12.2049C5.03555 12.3105 5.05218 12.4158 5.08765 12.5142C5.12313 12.6127 5.17671 12.7024 5.24515 12.7777C5.3136 12.8531 5.39548 12.9127 5.48582 12.9528C5.57617 12.9929 5.67311 13.0128 5.77076 13.0112C5.86841 13.0096 5.96474 12.9865 6.0539 12.9434C6.14307 12.9003 6.22322 12.838 6.28949 12.7604C7.8185 11.1465 9.86982 10.2432 12.0057 10.2432C14.1416 10.2432 16.1929 11.1465 17.7219 12.7604C17.788 12.8323 17.8667 12.8892 17.9535 12.9278C18.0402 12.9663 18.1331 12.9857 18.2268 12.9848C18.3699 12.9845 18.5096 12.9383 18.6283 12.8519C18.7469 12.7655 18.8392 12.6428 18.8933 12.4996C18.9474 12.3563 18.961 12.1989 18.9322 12.0472C18.9034 11.8956 18.8337 11.7567 18.7317 11.6481C16.94 9.73646 14.5218 8.67008 12.0057 8.68199ZM21.7972 8.3405C19.1863 5.559 15.6695 4 12.0057 4C8.34194 4 4.82508 5.559 2.2142 8.3405C2.0779 8.4867 2.00085 8.68551 2.00001 8.89319C1.99916 9.10087 2.07459 9.30041 2.20969 9.44791C2.3448 9.59541 2.52851 9.67878 2.72042 9.6797C2.91233 9.68061 3.09672 9.59899 3.23302 9.45279C5.57118 6.95853 8.7225 5.56027 12.0057 5.56027C15.2889 5.56027 18.4402 6.95853 20.7784 9.45279C20.9141 9.59454 21.0947 9.67482 21.2833 9.6772C21.4252 9.67433 21.5633 9.62679 21.6806 9.54037C21.7979 9.45395 21.8895 9.33241 21.944 9.19061C21.9985 9.04881 22.0136 8.89288 21.9876 8.74191C21.9615 8.59093 21.8954 8.45144 21.7972 8.3405ZM12.0057 17.6583C11.7917 17.6583 11.5825 17.727 11.4046 17.8557C11.2267 17.9843 11.088 18.1672 11.0061 18.3811C10.9242 18.5951 10.9028 18.8305 10.9446 19.0576C10.9863 19.2847 11.0894 19.4933 11.2407 19.6571C11.392 19.8208 11.5848 19.9323 11.7946 19.9775C12.0045 20.0227 12.2221 19.9995 12.4198 19.9109C12.6174 19.8223 12.7864 19.6722 12.9053 19.4796C13.0242 19.2871 13.0876 19.0607 13.0876 18.8292C13.0876 18.5186 12.9737 18.2208 12.7708 18.0013C12.5679 17.7817 12.2927 17.6583 12.0057 17.6583Z" fill="#212839"/>
</svg>